<svg width="105" height="38" viewBox="0 0 105 38" fill="none" xmlns="http://www.w3.org/2000/svg">
<g id="logos:visaelectron" clip-path="url(#clip0_280_951)">
<path id="Vector" d="M40.2639 0.486667L26.6007 27.1393H17.687L10.9633 5.868C10.5556 4.561 10.2014 4.08 8.96091 3.52733C6.93326 2.62667 3.58483 1.78433 0.641602 1.26033L0.840127 0.486667H15.191C17.0173 0.486667 18.6617 1.481 19.08 3.20267L22.6326 18.627L31.4036 0.486667H40.2639ZM52.314 0.486667L45.342 27.1393H36.9085L43.8814 0.486667H52.314ZM75.1896 18.4373C75.2247 11.4043 63.2969 11.014 63.3747 7.87167C63.4033 6.91633 64.5162 5.89933 66.9523 5.63933C68.1589 5.51167 71.4927 5.41 75.2687 6.83267L76.746 1.17733C74.7172 0.577333 72.1062 0 68.8584 0C60.522 0 54.658 3.62067 54.6111 8.80933C54.5565 12.6473 58.7997 14.7863 61.9908 16.0647C65.2776 17.37 66.3799 18.209 66.3649 19.3757C66.3412 21.164 63.7396 21.9557 61.321 21.985C57.0798 22.04 54.6213 21.0477 52.6601 20.3007L51.1294 26.1433C53.1024 26.8827 56.7386 27.525 60.5049 27.5577C69.3672 27.5577 75.1636 23.9783 75.1896 18.4373ZM97.2027 27.1397H105L98.188 0.486667H90.9942C89.3718 0.486667 88.0082 1.25667 87.4032 2.44033L74.7498 27.1393H83.6052L85.3617 23.158H96.1807L97.2027 27.1397ZM87.7901 17.6967L92.2302 7.68767L94.7809 17.6967H87.7901ZM63.1069 34.476H59.6802V37.0837H63.5129V37.8677H58.5258V30.6333H63.3164V31.4173H59.6802V33.703H63.1065L63.1069 34.476ZM65.2834 30.2473H66.4378V37.8673H65.2834V30.2473ZM69.3509 35.4417C69.377 36.7193 70.3619 37.245 71.5294 37.245C72.3569 37.245 72.8685 37.127 73.2892 36.977L73.4987 37.6533C73.0919 37.8033 72.3834 37.9857 71.372 37.9857C69.4169 37.9857 68.249 36.9233 68.249 35.356C68.249 33.7893 69.377 32.5653 71.2281 32.5653C73.3153 32.5653 73.8534 34.047 73.8534 35.002C73.8534 35.195 73.8399 35.3343 73.8134 35.442L69.3509 35.4417ZM72.7372 34.7657C72.7507 34.1757 72.4356 33.2417 71.136 33.2417C69.9546 33.2417 69.4556 34.111 69.3635 34.7657H72.7372ZM80.1377 37.685C79.836 37.8033 79.1663 37.986 78.3135 37.986C76.3971 37.986 75.1501 36.9233 75.1501 35.3347C75.1501 33.7353 76.4884 32.5657 78.5625 32.5657C79.2449 32.5657 79.8487 32.7047 80.1638 32.8447L79.9021 33.5637C79.6253 33.4457 79.1924 33.3163 78.5625 33.3163C77.1052 33.3163 76.3184 34.2073 76.3184 35.2813C76.3184 36.483 77.2634 37.2237 78.5234 37.2237C79.1797 37.2237 79.6126 37.095 79.9408 36.977L80.1377 37.685ZM83.3777 31.4277V32.6727H85.0311V33.3913H83.3777V36.193C83.3777 36.8377 83.6011 37.202 84.2439 37.202C84.5586 37.202 84.7429 37.181 84.9137 37.1373L84.9663 37.8573C84.7429 37.9213 84.3887 37.9857 83.9423 37.9857C83.4038 37.9857 82.9704 37.8353 82.6953 37.589C82.3802 37.2987 82.2489 36.8377 82.2489 36.2257V33.3913H81.264V32.6727H82.2489V31.7067L83.3777 31.4277ZM86.6442 34.2937C86.6442 33.6817 86.6303 33.156 86.5916 32.6727H87.6026L87.6556 33.7027H87.6939C87.9833 33.0057 88.6914 32.5653 89.4655 32.5653C89.5841 32.5653 89.6763 32.5763 89.7814 32.5867V33.478C89.6632 33.456 89.5454 33.456 89.3868 33.456C88.574 33.456 87.9955 33.9497 87.8386 34.6587C87.8114 34.8043 87.7982 34.9514 87.799 35.0987V37.868H86.6442V34.2937ZM96.8807 35.227C96.8807 37.1483 95.2395 37.9857 93.7173 37.9857C92.0105 37.9857 90.6722 36.955 90.6722 35.3133C90.6722 33.585 92.0765 32.5657 93.8225 32.5657C95.6467 32.5657 96.8807 33.6487 96.8807 35.227ZM91.8531 35.2813C91.8531 36.419 92.6407 37.278 93.7695 37.278C94.8726 37.278 95.6989 36.4293 95.6989 35.2597C95.6989 34.3797 95.1608 33.2737 93.7956 33.2737C92.4442 33.2737 91.8531 34.3047 91.8531 35.2813ZM98.6507 34.079C98.6507 33.532 98.6368 33.1023 98.5977 32.6733H99.6217L99.6873 33.532H99.7134C100.029 33.0487 100.764 32.566 101.814 32.566C102.693 32.566 104.058 32.9953 104.058 34.7763V37.868H102.903V34.8733C102.903 34.0367 102.523 33.3383 101.433 33.3383C100.685 33.3383 100.094 33.7787 99.8846 34.3043C99.8316 34.4227 99.8055 34.5833 99.8055 34.7447V37.868H98.6507V34.079Z" fill="#1A1F71"/>
</g>
<defs>
<clipPath id="clip0_280_951">
<rect width="104.358" height="38" fill="white" transform="translate(0.641602)"/>
</clipPath>
</defs>
</svg>
